<mxfile host="app.diagrams.net" modified="2024-02-23T10:47:27.254Z" agent="Mozilla/5.0 (Macintosh; Intel Mac OS X 10_15_7) AppleWebKit/537.36 (KHTML, like Gecko) Chrome/120.0.0.0 Safari/537.36" etag="XU-mhopqailk0_aaPCod" version="23.1.4" type="device">
  <diagram name="Page-1" id="hntotLuI-Zdp_Banj9rO">
    <mxGraphModel dx="1253" dy="835" grid="1" gridSize="10" guides="1" tooltips="1" connect="1" arrows="1" fold="1" page="1" pageScale="1" pageWidth="827" pageHeight="1169" math="0" shadow="0">
      <root>
        <mxCell id="0" />
        <mxCell id="1" parent="0" />
        <mxCell id="QFvbYqL83iWkqzc60FfB-1" value="&lt;h1&gt;Ride Sharing App&lt;/h1&gt;&lt;p&gt;1. User login&lt;/p&gt;&lt;p&gt;2. Driver onboarding&lt;/p&gt;&lt;p&gt;3. Ride search&lt;/p&gt;&lt;p&gt;4. Ride assigning to users&lt;/p&gt;&lt;p&gt;5. Ride tracking&lt;/p&gt;&lt;p&gt;&lt;br&gt;&lt;/p&gt;" style="text;html=1;spacing=5;spacingTop=-20;whiteSpace=wrap;overflow=hidden;rounded=0;" parent="1" vertex="1">
          <mxGeometry x="50" y="190" width="470" height="190" as="geometry" />
        </mxCell>
        <mxCell id="QFvbYqL83iWkqzc60FfB-5" value="" style="edgeStyle=orthogonalEdgeStyle;rounded=0;orthogonalLoop=1;jettySize=auto;html=1;" parent="1" source="QFvbYqL83iWkqzc60FfB-2" target="QFvbYqL83iWkqzc60FfB-4" edge="1">
          <mxGeometry relative="1" as="geometry" />
        </mxCell>
        <mxCell id="QFvbYqL83iWkqzc60FfB-2" value="Rider App" style="rounded=1;whiteSpace=wrap;html=1;" parent="1" vertex="1">
          <mxGeometry x="220" y="570" width="120" height="60" as="geometry" />
        </mxCell>
        <mxCell id="QFvbYqL83iWkqzc60FfB-9" value="" style="edgeStyle=orthogonalEdgeStyle;rounded=0;orthogonalLoop=1;jettySize=auto;html=1;" parent="1" source="QFvbYqL83iWkqzc60FfB-3" target="QFvbYqL83iWkqzc60FfB-8" edge="1">
          <mxGeometry relative="1" as="geometry" />
        </mxCell>
        <mxCell id="QFvbYqL83iWkqzc60FfB-3" value="Driver App" style="rounded=1;whiteSpace=wrap;html=1;" parent="1" vertex="1">
          <mxGeometry x="650" y="530" width="120" height="60" as="geometry" />
        </mxCell>
        <mxCell id="QFvbYqL83iWkqzc60FfB-7" value="" style="edgeStyle=orthogonalEdgeStyle;rounded=0;orthogonalLoop=1;jettySize=auto;html=1;" parent="1" source="QFvbYqL83iWkqzc60FfB-4" target="QFvbYqL83iWkqzc60FfB-6" edge="1">
          <mxGeometry relative="1" as="geometry" />
        </mxCell>
        <mxCell id="QFvbYqL83iWkqzc60FfB-16" style="edgeStyle=orthogonalEdgeStyle;rounded=0;orthogonalLoop=1;jettySize=auto;html=1;entryX=0.5;entryY=0;entryDx=0;entryDy=0;" parent="1" source="QFvbYqL83iWkqzc60FfB-4" target="QFvbYqL83iWkqzc60FfB-15" edge="1">
          <mxGeometry relative="1" as="geometry" />
        </mxCell>
        <mxCell id="QFvbYqL83iWkqzc60FfB-4" value="Load Balancer" style="rounded=1;whiteSpace=wrap;html=1;" parent="1" vertex="1">
          <mxGeometry x="220" y="690" width="120" height="60" as="geometry" />
        </mxCell>
        <mxCell id="QFvbYqL83iWkqzc60FfB-13" style="edgeStyle=orthogonalEdgeStyle;rounded=0;orthogonalLoop=1;jettySize=auto;html=1;" parent="1" source="QFvbYqL83iWkqzc60FfB-6" target="QFvbYqL83iWkqzc60FfB-12" edge="1">
          <mxGeometry relative="1" as="geometry">
            <Array as="points">
              <mxPoint x="330" y="950" />
              <mxPoint x="414" y="950" />
            </Array>
          </mxGeometry>
        </mxCell>
        <mxCell id="QFvbYqL83iWkqzc60FfB-6" value="Ride App Server" style="rounded=1;whiteSpace=wrap;html=1;" parent="1" vertex="1">
          <mxGeometry x="270" y="840" width="120" height="60" as="geometry" />
        </mxCell>
        <mxCell id="QFvbYqL83iWkqzc60FfB-11" value="" style="edgeStyle=orthogonalEdgeStyle;rounded=0;orthogonalLoop=1;jettySize=auto;html=1;" parent="1" source="QFvbYqL83iWkqzc60FfB-8" target="QFvbYqL83iWkqzc60FfB-10" edge="1">
          <mxGeometry relative="1" as="geometry" />
        </mxCell>
        <mxCell id="QFvbYqL83iWkqzc60FfB-8" value="Load Balancer" style="rounded=1;whiteSpace=wrap;html=1;" parent="1" vertex="1">
          <mxGeometry x="650" y="670" width="120" height="60" as="geometry" />
        </mxCell>
        <mxCell id="QFvbYqL83iWkqzc60FfB-10" value="Driver App Server" style="rounded=1;whiteSpace=wrap;html=1;" parent="1" vertex="1">
          <mxGeometry x="650" y="810" width="120" height="60" as="geometry" />
        </mxCell>
        <mxCell id="QFvbYqL83iWkqzc60FfB-12" value="DB" style="shape=cylinder3;whiteSpace=wrap;html=1;boundedLbl=1;backgroundOutline=1;size=15;" parent="1" vertex="1">
          <mxGeometry x="384" y="1040" width="60" height="80" as="geometry" />
        </mxCell>
        <mxCell id="QFvbYqL83iWkqzc60FfB-14" style="edgeStyle=orthogonalEdgeStyle;rounded=0;orthogonalLoop=1;jettySize=auto;html=1;entryX=1;entryY=0.5;entryDx=0;entryDy=0;entryPerimeter=0;" parent="1" source="QFvbYqL83iWkqzc60FfB-26" target="QFvbYqL83iWkqzc60FfB-20" edge="1">
          <mxGeometry relative="1" as="geometry">
            <mxPoint x="696" y="1120" as="sourcePoint" />
            <mxPoint x="510" y="1130" as="targetPoint" />
            <Array as="points">
              <mxPoint x="720" y="1100" />
            </Array>
          </mxGeometry>
        </mxCell>
        <mxCell id="QFvbYqL83iWkqzc60FfB-15" value="Ride Search" style="rounded=1;whiteSpace=wrap;html=1;" parent="1" vertex="1">
          <mxGeometry x="90" y="850" width="120" height="60" as="geometry" />
        </mxCell>
        <mxCell id="QFvbYqL83iWkqzc60FfB-17" style="edgeStyle=orthogonalEdgeStyle;rounded=0;orthogonalLoop=1;jettySize=auto;html=1;entryX=0;entryY=0.5;entryDx=0;entryDy=0;entryPerimeter=0;" parent="1" source="QFvbYqL83iWkqzc60FfB-15" target="QFvbYqL83iWkqzc60FfB-12" edge="1">
          <mxGeometry relative="1" as="geometry">
            <Array as="points">
              <mxPoint x="150" y="1080" />
            </Array>
          </mxGeometry>
        </mxCell>
        <mxCell id="QFvbYqL83iWkqzc60FfB-18" value="User Cache" style="shape=parallelogram;perimeter=parallelogramPerimeter;whiteSpace=wrap;html=1;fixedSize=1;" parent="1" vertex="1">
          <mxGeometry x="30" y="960" width="120" height="60" as="geometry" />
        </mxCell>
        <mxCell id="QFvbYqL83iWkqzc60FfB-19" value="DB" style="shape=cylinder3;whiteSpace=wrap;html=1;boundedLbl=1;backgroundOutline=1;size=15;" parent="1" vertex="1">
          <mxGeometry x="414" y="1050" width="60" height="80" as="geometry" />
        </mxCell>
        <mxCell id="QFvbYqL83iWkqzc60FfB-20" value="DB" style="shape=cylinder3;whiteSpace=wrap;html=1;boundedLbl=1;backgroundOutline=1;size=15;" parent="1" vertex="1">
          <mxGeometry x="444" y="1060" width="60" height="80" as="geometry" />
        </mxCell>
        <mxCell id="QFvbYqL83iWkqzc60FfB-21" value="Driver App Server" style="rounded=1;whiteSpace=wrap;html=1;" parent="1" vertex="1">
          <mxGeometry x="660" y="820" width="120" height="60" as="geometry" />
        </mxCell>
        <mxCell id="QFvbYqL83iWkqzc60FfB-22" value="Driver App Server" style="rounded=1;whiteSpace=wrap;html=1;" parent="1" vertex="1">
          <mxGeometry x="670" y="830" width="120" height="60" as="geometry" />
        </mxCell>
        <mxCell id="QFvbYqL83iWkqzc60FfB-23" value="Ride App Server" style="rounded=1;whiteSpace=wrap;html=1;" parent="1" vertex="1">
          <mxGeometry x="280" y="850" width="120" height="60" as="geometry" />
        </mxCell>
        <mxCell id="QFvbYqL83iWkqzc60FfB-24" value="Ride App Server" style="rounded=1;whiteSpace=wrap;html=1;" parent="1" vertex="1">
          <mxGeometry x="290" y="860" width="120" height="60" as="geometry" />
        </mxCell>
        <mxCell id="QFvbYqL83iWkqzc60FfB-25" value="Cab Cache" style="shape=parallelogram;perimeter=parallelogramPerimeter;whiteSpace=wrap;html=1;fixedSize=1;" parent="1" vertex="1">
          <mxGeometry x="150" y="960" width="120" height="60" as="geometry" />
        </mxCell>
        <mxCell id="QFvbYqL83iWkqzc60FfB-27" style="edgeStyle=orthogonalEdgeStyle;rounded=0;orthogonalLoop=1;jettySize=auto;html=1;entryX=0.5;entryY=1;entryDx=0;entryDy=0;" parent="1" source="QFvbYqL83iWkqzc60FfB-26" target="QFvbYqL83iWkqzc60FfB-22" edge="1">
          <mxGeometry relative="1" as="geometry" />
        </mxCell>
        <mxCell id="QFvbYqL83iWkqzc60FfB-26" value="Driver Cache" style="shape=parallelogram;perimeter=parallelogramPerimeter;whiteSpace=wrap;html=1;fixedSize=1;" parent="1" vertex="1">
          <mxGeometry x="670" y="930" width="120" height="60" as="geometry" />
        </mxCell>
        <mxCell id="QFvbYqL83iWkqzc60FfB-28" value="Ride Search" style="rounded=1;whiteSpace=wrap;html=1;" parent="1" vertex="1">
          <mxGeometry x="100" y="860" width="120" height="60" as="geometry" />
        </mxCell>
        <mxCell id="QFvbYqL83iWkqzc60FfB-29" value="Ride Search" style="rounded=1;whiteSpace=wrap;html=1;" parent="1" vertex="1">
          <mxGeometry x="110" y="870" width="120" height="60" as="geometry" />
        </mxCell>
        <mxCell id="QFvbYqL83iWkqzc60FfB-32" style="edgeStyle=orthogonalEdgeStyle;rounded=0;orthogonalLoop=1;jettySize=auto;html=1;entryX=0.733;entryY=0;entryDx=0;entryDy=0;entryPerimeter=0;exitX=0.5;exitY=1;exitDx=0;exitDy=0;" parent="1" source="QFvbYqL83iWkqzc60FfB-56" target="QFvbYqL83iWkqzc60FfB-12" edge="1">
          <mxGeometry relative="1" as="geometry">
            <mxPoint x="520" y="910" as="sourcePoint" />
            <Array as="points">
              <mxPoint x="520" y="1040" />
            </Array>
          </mxGeometry>
        </mxCell>
        <mxCell id="QFvbYqL83iWkqzc60FfB-50" style="edgeStyle=orthogonalEdgeStyle;rounded=0;orthogonalLoop=1;jettySize=auto;html=1;endArrow=diamond;endFill=1;" parent="1" source="QFvbYqL83iWkqzc60FfB-38" target="QFvbYqL83iWkqzc60FfB-40" edge="1">
          <mxGeometry relative="1" as="geometry" />
        </mxCell>
        <mxCell id="QFvbYqL83iWkqzc60FfB-38" value="&lt;h1&gt;Booking&lt;/h1&gt;&lt;div&gt;&amp;nbsp;-&amp;nbsp; bookingId&lt;/div&gt;&lt;div&gt;&lt;span style=&quot;background-color: initial;&quot;&gt;&amp;nbsp; - User&lt;/span&gt;&lt;br&gt;&lt;/div&gt;&lt;div&gt;&amp;nbsp; - Cab&lt;/div&gt;&lt;div&gt;&amp;nbsp; - Source&lt;/div&gt;&lt;div&gt;&amp;nbsp; - Destination&lt;/div&gt;&lt;div&gt;&amp;nbsp; - List&amp;lt;Transaction&amp;gt;&lt;/div&gt;" style="text;html=1;spacing=5;spacingTop=-20;whiteSpace=wrap;overflow=hidden;rounded=0;strokeColor=default;" parent="1" vertex="1">
          <mxGeometry x="30" y="1420" width="170" height="160" as="geometry" />
        </mxCell>
        <mxCell id="QFvbYqL83iWkqzc60FfB-39" value="&lt;h1&gt;User&lt;/h1&gt;&lt;div&gt;&amp;nbsp;- userId&lt;/div&gt;&lt;div&gt;&amp;nbsp;- name&lt;/div&gt;&lt;div&gt;&amp;nbsp;- city&lt;/div&gt;&lt;div&gt;&amp;nbsp;- email&lt;/div&gt;&lt;div&gt;&amp;nbsp;- phoneNo&lt;/div&gt;" style="text;html=1;spacing=5;spacingTop=-20;whiteSpace=wrap;overflow=hidden;rounded=0;strokeColor=default;" parent="1" vertex="1">
          <mxGeometry x="370" y="1270" width="160" height="140" as="geometry" />
        </mxCell>
        <mxCell id="QFvbYqL83iWkqzc60FfB-40" value="&lt;h1&gt;Cab&lt;/h1&gt;&lt;div&gt;&amp;nbsp;- cabId&lt;/div&gt;&lt;div&gt;&amp;nbsp;- cabNumber&lt;/div&gt;&lt;div&gt;&amp;nbsp;- city&lt;/div&gt;&lt;div&gt;&amp;nbsp;- status&lt;/div&gt;&lt;div&gt;&amp;nbsp;- driver&lt;/div&gt;" style="text;html=1;spacing=5;spacingTop=-20;whiteSpace=wrap;overflow=hidden;rounded=0;strokeColor=default;" parent="1" vertex="1">
          <mxGeometry x="35" y="1720" width="160" height="140" as="geometry" />
        </mxCell>
        <mxCell id="QFvbYqL83iWkqzc60FfB-42" value="&lt;h1&gt;Transaction&lt;/h1&gt;&lt;div&gt;&amp;nbsp;-&amp;nbsp; transactionId&lt;/div&gt;&lt;div&gt;&lt;span style=&quot;background-color: initial;&quot;&gt;&amp;nbsp; - bookingId&lt;/span&gt;&lt;br&gt;&lt;/div&gt;&lt;div&gt;&amp;nbsp; - amount&lt;/div&gt;&lt;div&gt;&amp;nbsp; - currenty&lt;/div&gt;&lt;div&gt;&amp;nbsp; - paymentMode&lt;/div&gt;&lt;div&gt;&amp;nbsp; - paymentReferenceId&lt;/div&gt;" style="text;html=1;spacing=5;spacingTop=-20;whiteSpace=wrap;overflow=hidden;rounded=0;strokeColor=default;" parent="1" vertex="1">
          <mxGeometry x="255" y="1570" width="170" height="160" as="geometry" />
        </mxCell>
        <mxCell id="QFvbYqL83iWkqzc60FfB-43" style="edgeStyle=orthogonalEdgeStyle;rounded=0;orthogonalLoop=1;jettySize=auto;html=1;entryX=0;entryY=0.379;entryDx=0;entryDy=0;entryPerimeter=0;startArrow=none;startFill=0;endArrow=diamond;endFill=1;" parent="1" source="QFvbYqL83iWkqzc60FfB-38" target="QFvbYqL83iWkqzc60FfB-39" edge="1">
          <mxGeometry relative="1" as="geometry" />
        </mxCell>
        <mxCell id="QFvbYqL83iWkqzc60FfB-48" style="edgeStyle=orthogonalEdgeStyle;rounded=0;orthogonalLoop=1;jettySize=auto;html=1;entryX=0.463;entryY=1;entryDx=0;entryDy=0;entryPerimeter=0;" parent="1" source="QFvbYqL83iWkqzc60FfB-45" target="QFvbYqL83iWkqzc60FfB-39" edge="1">
          <mxGeometry relative="1" as="geometry" />
        </mxCell>
        <mxCell id="QFvbYqL83iWkqzc60FfB-45" value="&lt;h1&gt;Rider&lt;/h1&gt;&lt;div&gt;&amp;nbsp;- preferredCab&lt;br&gt;&lt;/div&gt;&lt;div&gt;&amp;nbsp;- emergencyContact&lt;/div&gt;" style="text;html=1;spacing=5;spacingTop=-20;whiteSpace=wrap;overflow=hidden;rounded=0;strokeColor=default;" parent="1" vertex="1">
          <mxGeometry x="334" y="1455" width="160" height="90" as="geometry" />
        </mxCell>
        <mxCell id="QFvbYqL83iWkqzc60FfB-49" style="edgeStyle=orthogonalEdgeStyle;rounded=0;orthogonalLoop=1;jettySize=auto;html=1;entryX=0.75;entryY=1;entryDx=0;entryDy=0;" parent="1" source="QFvbYqL83iWkqzc60FfB-47" target="QFvbYqL83iWkqzc60FfB-39" edge="1">
          <mxGeometry relative="1" as="geometry">
            <Array as="points">
              <mxPoint x="650" y="1450" />
              <mxPoint x="490" y="1450" />
            </Array>
          </mxGeometry>
        </mxCell>
        <mxCell id="QFvbYqL83iWkqzc60FfB-47" value="&lt;h1&gt;Driver&lt;/h1&gt;&lt;div&gt;- DrivingLicenceNo&lt;/div&gt;&lt;div&gt;&lt;br&gt;&lt;/div&gt;" style="text;html=1;spacing=5;spacingTop=-20;whiteSpace=wrap;overflow=hidden;rounded=0;strokeColor=default;" parent="1" vertex="1">
          <mxGeometry x="570" y="1500" width="160" height="80" as="geometry" />
        </mxCell>
        <mxCell id="QFvbYqL83iWkqzc60FfB-51" style="edgeStyle=orthogonalEdgeStyle;rounded=0;orthogonalLoop=1;jettySize=auto;html=1;entryX=0.625;entryY=1.013;entryDx=0;entryDy=0;entryPerimeter=0;" parent="1" source="QFvbYqL83iWkqzc60FfB-40" target="QFvbYqL83iWkqzc60FfB-47" edge="1">
          <mxGeometry relative="1" as="geometry" />
        </mxCell>
        <mxCell id="QFvbYqL83iWkqzc60FfB-52" style="edgeStyle=orthogonalEdgeStyle;rounded=0;orthogonalLoop=1;jettySize=auto;html=1;entryX=0.006;entryY=0.638;entryDx=0;entryDy=0;entryPerimeter=0;endArrow=diamond;endFill=1;" parent="1" source="QFvbYqL83iWkqzc60FfB-38" target="QFvbYqL83iWkqzc60FfB-42" edge="1">
          <mxGeometry relative="1" as="geometry" />
        </mxCell>
        <mxCell id="QFvbYqL83iWkqzc60FfB-54" value="" style="edgeStyle=orthogonalEdgeStyle;rounded=0;orthogonalLoop=1;jettySize=auto;html=1;" parent="1" source="QFvbYqL83iWkqzc60FfB-4" target="QFvbYqL83iWkqzc60FfB-35" edge="1">
          <mxGeometry relative="1" as="geometry">
            <mxPoint x="340" y="720" as="sourcePoint" />
            <mxPoint x="520" y="850" as="targetPoint" />
          </mxGeometry>
        </mxCell>
        <mxCell id="QFvbYqL83iWkqzc60FfB-35" value="Booking" style="rounded=1;whiteSpace=wrap;html=1;" parent="1" vertex="1">
          <mxGeometry x="460" y="690" width="120" height="60" as="geometry" />
        </mxCell>
        <mxCell id="QFvbYqL83iWkqzc60FfB-55" value="" style="edgeStyle=orthogonalEdgeStyle;rounded=0;orthogonalLoop=1;jettySize=auto;html=1;" parent="1" source="QFvbYqL83iWkqzc60FfB-35" target="QFvbYqL83iWkqzc60FfB-53" edge="1">
          <mxGeometry relative="1" as="geometry">
            <mxPoint x="510" y="750" as="sourcePoint" />
            <mxPoint x="520" y="850" as="targetPoint" />
          </mxGeometry>
        </mxCell>
        <mxCell id="QFvbYqL83iWkqzc60FfB-53" value="Booking Queue" style="shape=process;whiteSpace=wrap;html=1;backgroundOutline=1;" parent="1" vertex="1">
          <mxGeometry x="460" y="810" width="120" height="60" as="geometry" />
        </mxCell>
        <mxCell id="QFvbYqL83iWkqzc60FfB-57" value="" style="edgeStyle=orthogonalEdgeStyle;rounded=0;orthogonalLoop=1;jettySize=auto;html=1;entryX=0.5;entryY=0;entryDx=0;entryDy=0;exitX=0.5;exitY=1;exitDx=0;exitDy=0;" parent="1" source="QFvbYqL83iWkqzc60FfB-53" target="QFvbYqL83iWkqzc60FfB-56" edge="1">
          <mxGeometry relative="1" as="geometry">
            <mxPoint x="520" y="910" as="sourcePoint" />
            <mxPoint x="428" y="1040" as="targetPoint" />
            <Array as="points" />
          </mxGeometry>
        </mxCell>
        <mxCell id="QFvbYqL83iWkqzc60FfB-58" value="user database lock" style="edgeLabel;html=1;align=center;verticalAlign=middle;resizable=0;points=[];" parent="QFvbYqL83iWkqzc60FfB-57" vertex="1" connectable="0">
          <mxGeometry x="-0.3063" y="-1" relative="1" as="geometry">
            <mxPoint x="11" y="126" as="offset" />
          </mxGeometry>
        </mxCell>
        <mxCell id="QFvbYqL83iWkqzc60FfB-56" value="DB Booking" style="rounded=1;whiteSpace=wrap;html=1;" parent="1" vertex="1">
          <mxGeometry x="460" y="940" width="120" height="50" as="geometry" />
        </mxCell>
      </root>
    </mxGraphModel>
  </diagram>
</mxfile>
